<svg xmlns="http://www.w3.org/2000/svg" viewBox="0 0 600 300"><defs><linearGradient id="b" x1="0" x2="1"><stop stop-color="#ffb300"/><stop offset="1" stop-color="#ff7a00"/></linearGradient></defs><rect width="600" height="300" rx="42" fill="url(#b)"/><circle cx="470" cy="100" r="120" fill="#fff" opacity=".18"/><path d="M390 215h150l-16-100H405z" fill="#f4c98b"/><path d="M430 125c-8-45 20-70 34-74 14 7 27 31 12 71" fill="#52a84d"/><path d="M470 130c5-58 40-70 55-63 9 17-2 49-24 74" fill="#1e8e4e"/><circle cx="430" cy="140" r="30" fill="#e73232"/><circle cx="488" cy="156" r="25" fill="#f45b69"/><path d="M521 112c-7-48 18-65 29-68 15 15 13 47-5 77" fill="#f2e0ad"/><text x="45" y="90" fill="#fff" font-family="Arial,sans-serif" font-size="42" font-weight="700">Shop Smarter,</text><text x="45" y="140" fill="#fff" font-family="Arial,sans-serif" font-size="42" font-weight="700">Save More!</text><rect x="45" y="185" width="180" height="52" rx="26" fill="#fff" opacity=".18"/><text x="72" y="218" fill="#fff" font-family="Arial,sans-serif" font-size="18" font-weight="700">Every trip, worth it.</text></svg>
