<svg xmlns="http://www.w3.org/2000/svg" viewBox="0 0 420 300"><rect width="420" height="300" rx="38" fill="#fff8ef"/><path d="M110 110h190l-20 150H130z" fill="#d7a870"/><path d="M150 120c0-60 110-60 110 0" fill="none" stroke="#c69258" stroke-width="14"/><circle cx="185" cy="125" r="35" fill="#ef3f40"/><path d="M220 115c5-50 32-70 50-56 8 22-2 49-26 70" fill="#5da84d"/><circle cx="290" cy="200" r="52" fill="#ff2f3a"/><path d="m290 167 10 23 24-8-8 24 23 10-23 10 8 24-24-8-10 23-10-23-24 8 8-24-23-10 23-10-8-24 24 8z" fill="#fff" transform="scale(.45) translate(354 273)"/></svg>
